<svg width="863" height="863" viewBox="0 0 863 863" fill="none" xmlns="http://www.w3.org/2000/svg">
<g clip-path="url(#clip0_90_410)">
<path d="M863 0H0V863H863V0Z" fill="white"/>
<mask id="mask0_90_410" style="mask-type:luminance" maskUnits="userSpaceOnUse" x="266" y="294" width="324" height="281">
<path d="M318.366 295.154C294.561 317.239 277.968 345.989 270.754 377.649C263.54 409.31 266.04 442.41 277.928 472.628C289.815 502.845 310.538 528.777 337.391 547.035C364.243 565.294 395.977 575.032 428.449 574.978C460.921 574.923 492.622 565.079 519.413 546.73C546.204 528.381 566.839 502.381 578.626 472.123C590.412 441.866 592.801 408.758 585.481 377.121C578.16 345.485 561.471 316.791 537.592 294.786L533.285 299.46C556.224 320.599 572.257 348.163 579.289 378.554C586.321 408.945 584.026 440.75 572.704 469.817C561.381 498.883 541.558 523.86 515.821 541.487C490.085 559.113 459.632 568.57 428.438 568.622C397.244 568.675 366.759 559.32 340.964 541.78C315.169 524.24 295.262 499.329 283.842 470.301C272.422 441.273 270.021 409.475 276.951 379.061C283.881 348.647 299.821 321.029 322.689 299.813L318.366 295.154Z" fill="white"/>
</mask>
<g mask="url(#mask0_90_410)">
<path d="M318.366 295.154C294.561 317.239 277.968 345.989 270.754 377.649C263.54 409.31 266.04 442.41 277.928 472.628C289.815 502.845 310.538 528.777 337.391 547.035C364.243 565.294 395.977 575.032 428.449 574.978C460.921 574.923 492.622 565.079 519.413 546.73C546.204 528.381 566.839 502.381 578.626 472.123C590.412 441.866 592.801 408.758 585.481 377.121C578.16 345.485 561.471 316.791 537.592 294.786L533.285 299.46C556.224 320.599 572.257 348.163 579.289 378.554C586.321 408.945 584.026 440.75 572.704 469.817C561.381 498.883 541.558 523.86 515.821 541.487C490.085 559.113 459.632 568.57 428.438 568.622C397.244 568.675 366.759 559.32 340.964 541.78C315.169 524.24 295.262 499.329 283.842 470.301C272.422 441.273 270.021 409.475 276.951 379.061C283.881 348.647 299.821 321.029 322.689 299.813L318.366 295.154Z" stroke="#535556" stroke-width="9.35993"/>
</g>
<mask id="mask1_90_410" style="mask-type:luminance" maskUnits="userSpaceOnUse" x="247" y="231" width="367" height="307">
<path d="M564.121 537.871C588.102 512.106 604.122 479.956 610.25 445.295C616.378 410.634 612.353 374.94 598.66 342.514C584.966 310.088 562.189 282.313 533.072 262.536C503.955 242.759 469.741 231.822 434.551 231.045C399.361 230.267 364.697 239.681 334.734 258.153C304.772 276.625 280.79 303.367 265.678 335.156C250.566 366.945 244.968 402.426 249.559 437.324C254.15 472.222 268.734 505.048 291.554 531.848L297.024 527.19C275.102 501.446 261.092 469.912 256.682 436.387C252.272 402.863 257.649 368.779 272.167 338.241C286.684 307.702 309.722 282.013 338.505 264.269C367.287 246.524 400.587 237.48 434.392 238.227C468.197 238.974 501.065 249.48 529.036 268.479C557.006 287.478 578.887 314.159 592.041 345.309C605.195 376.459 609.062 410.747 603.175 444.044C597.288 477.341 581.899 508.225 558.862 532.976L564.121 537.871Z" fill="white"/>
</mask>
<g mask="url(#mask1_90_410)">
<path d="M564.121 537.871C588.102 512.106 604.122 479.956 610.25 445.295C616.378 410.634 612.353 374.94 598.66 342.514C584.966 310.088 562.189 282.313 533.072 262.536C503.955 242.759 469.741 231.822 434.551 231.045C399.361 230.267 364.697 239.681 334.734 258.153C304.772 276.625 280.79 303.367 265.678 335.156C250.566 366.945 244.968 402.426 249.559 437.324C254.15 472.222 268.734 505.048 291.554 531.848L297.024 527.19C275.102 501.446 261.092 469.912 256.682 436.387C252.272 402.863 257.649 368.779 272.167 338.241C286.684 307.702 309.722 282.013 338.505 264.269C367.287 246.524 400.587 237.48 434.392 238.227C468.197 238.974 501.065 249.48 529.036 268.479C557.006 287.478 578.887 314.159 592.041 345.309C605.195 376.459 609.062 410.747 603.175 444.044C597.288 477.341 581.899 508.225 558.862 532.976L564.121 537.871Z" stroke="#535556" stroke-width="9.35993"/>
</g>
<path d="M434.429 289.5V369.611M434.429 369.611L468.066 340.892V298.569M434.429 369.611V482.221M434.429 482.221L474.182 446.7V408.911H497.117L541.457 363.565M434.429 482.221V528.323L423.726 520.765V498.092L397.734 470.884H374.799L353.394 451.046M353.394 451.046L301.409 402.865M353.394 451.046V413.446L325.872 387.75M445.132 546.461V498.092L471.124 470.884M567.449 402.865L515.464 453.14V413.446L541.457 387.75" stroke="#03E8CE" stroke-width="3.50997"/>
<path d="M324.351 363.566C340.151 378.178 371.444 407.098 370.22 405.889C368.997 404.68 382.962 405.385 390.097 405.889V446.701L422.205 473.908" stroke="#03E8CE" stroke-width="3.50997"/>
<path d="M332.002 342.405L376.342 384.728H400.806" stroke="#03E8CE" stroke-width="3.50997"/>
<path d="M359.515 345.426L385.508 371.122" stroke="#03E8CE" stroke-width="3.50997"/>
<path d="M377.878 315.196V342.404L419.161 381.704V422.515L431.392 434.608L434.45 437.631" stroke="#03E8CE" stroke-width="3.50997"/>
<path d="M396.214 298.571V337.871L420.678 362.055" stroke="#03E8CE" stroke-width="3.50997"/>
<path d="M416.086 309.15V333.334L425.26 337.869" stroke="#03E8CE" stroke-width="3.50997"/>
<path d="M451.244 309.15V331.823L443.599 339.381" stroke="#03E8CE" stroke-width="3.50997"/>
<path d="M492.548 315.196V339.381L446.679 383.215V421.004" stroke="#03E8CE" stroke-width="3.50997"/>
<path d="M536.879 340.892L491.01 386.238H463.489" stroke="#03E8CE" stroke-width="3.50997"/>
<path d="M461.962 404.375V433.094" stroke="#03E8CE" stroke-width="3.50997"/>
<path d="M452.776 442.167L435.957 460.305" stroke="#03E8CE" stroke-width="3.50997"/>
<path d="M409.971 440.654L423.732 452.746" stroke="#03E8CE" stroke-width="3.50997"/>
<path d="M373.281 421.004V451.235L382.455 455.77" stroke="#03E8CE" stroke-width="3.50997"/>
<path d="M552.163 396.818L523.113 422.514" stroke="#03E8CE" stroke-width="3.50997"/>
<path d="M509.346 345.426L481.825 372.633" stroke="#03E8CE" stroke-width="3.50997"/>
<path d="M492.534 421.004V451.235L483.36 460.304" stroke="#03E8CE" stroke-width="3.50997"/>
<path d="M480.307 486.001H506.3L529.234 458.793H553.698" stroke="#03E8CE" stroke-width="3.50997"/>
<path d="M550.635 439.144H572.04" stroke="#03E8CE" stroke-width="3.50997"/>
<path d="M310.595 461.813H342.703L362.58 485.998H385.514" stroke="#03E8CE" stroke-width="3.50997"/>
<path d="M298.365 440.654H313.654" stroke="#03E8CE" stroke-width="3.50997"/>
<path d="M405.391 401.353V430.072" stroke="#03E8CE" stroke-width="3.50997"/>
<path d="M376.699 318.165C378.314 318.165 379.624 316.855 379.624 315.24C379.624 313.624 378.314 312.315 376.699 312.315C375.083 312.315 373.774 313.624 373.774 315.24C373.774 316.855 375.083 318.165 376.699 318.165Z" fill="#535556" stroke="#535556" stroke-width="3.50997"/>
<path d="M395.419 301.784C397.035 301.784 398.344 300.474 398.344 298.859C398.344 297.244 397.035 295.934 395.419 295.934C393.804 295.934 392.494 297.244 392.494 298.859C392.494 300.474 393.804 301.784 395.419 301.784Z" fill="#535556" stroke="#535556" stroke-width="3.50997"/>
<path d="M416.479 313.484C418.094 313.484 419.404 312.174 419.404 310.559C419.404 308.943 418.094 307.634 416.479 307.634C414.864 307.634 413.554 308.943 413.554 310.559C413.554 312.174 414.864 313.484 416.479 313.484Z" fill="#535556" stroke="#535556" stroke-width="3.50997"/>
<path d="M435.198 294.765C436.813 294.765 438.123 293.455 438.123 291.84C438.123 290.225 436.813 288.915 435.198 288.915C433.583 288.915 432.273 290.225 432.273 291.84C432.273 293.455 433.583 294.765 435.198 294.765Z" fill="#535556" stroke="#535556" stroke-width="3.50997"/>
<path d="M451.578 313.484C453.193 313.484 454.503 312.174 454.503 310.559C454.503 308.943 453.193 307.634 451.578 307.634C449.963 307.634 448.653 308.943 448.653 310.559C448.653 312.174 449.963 313.484 451.578 313.484Z" fill="#535556" stroke="#535556" stroke-width="3.50997"/>
<path d="M467.958 304.125C469.573 304.125 470.883 302.815 470.883 301.2C470.883 299.584 469.573 298.275 467.958 298.275C466.343 298.275 465.033 299.584 465.033 301.2C465.033 302.815 466.343 304.125 467.958 304.125Z" fill="#535556" stroke="#535556" stroke-width="3.50997"/>
<path d="M491.358 320.505C492.974 320.505 494.283 319.196 494.283 317.58C494.283 315.965 492.974 314.655 491.358 314.655C489.743 314.655 488.433 315.965 488.433 317.58C488.433 319.196 489.743 320.505 491.358 320.505Z" fill="#535556" stroke="#535556" stroke-width="3.50997"/>
<path d="M510.078 348.584C511.693 348.584 513.003 347.274 513.003 345.659C513.003 344.043 511.693 342.734 510.078 342.734C508.463 342.734 507.153 344.043 507.153 345.659C507.153 347.274 508.463 348.584 510.078 348.584Z" fill="#535556" stroke="#535556" stroke-width="3.50997"/>
<path d="M538.158 367.304C539.773 367.304 541.083 365.995 541.083 364.379C541.083 362.764 539.773 361.454 538.158 361.454C536.542 361.454 535.233 362.764 535.233 364.379C535.233 365.995 536.542 367.304 538.158 367.304Z" fill="#535556" stroke="#535556" stroke-width="3.50997"/>
<path d="M535.818 343.904C537.433 343.904 538.743 342.595 538.743 340.979C538.743 339.364 537.433 338.054 535.818 338.054C534.203 338.054 532.893 339.364 532.893 340.979C532.893 342.595 534.203 343.904 535.818 343.904Z" fill="#535556" stroke="#535556" stroke-width="3.50997"/>
<path d="M542.838 390.704C544.453 390.704 545.763 389.394 545.763 387.779C545.763 386.164 544.453 384.854 542.838 384.854C541.223 384.854 539.913 386.164 539.913 387.779C539.913 389.394 541.223 390.704 542.838 390.704Z" fill="#535556" stroke="#535556" stroke-width="3.50997"/>
<path d="M552.198 400.064C553.813 400.064 555.123 398.754 555.123 397.139C555.123 395.523 553.813 394.214 552.198 394.214C550.583 394.214 549.273 395.523 549.273 397.139C549.273 398.754 550.583 400.064 552.198 400.064Z" fill="#535556" stroke="#535556" stroke-width="3.50997"/>
<path d="M566.237 407.084C567.852 407.084 569.162 405.774 569.162 404.159C569.162 402.543 567.852 401.234 566.237 401.234C564.622 401.234 563.312 402.543 563.312 404.159C563.312 405.774 564.622 407.084 566.237 407.084Z" fill="#535556" stroke="#535556" stroke-width="3.50997"/>
<path d="M570.917 442.184C572.532 442.184 573.842 440.874 573.842 439.259C573.842 437.644 572.532 436.334 570.917 436.334C569.302 436.334 567.992 437.644 567.992 439.259C567.992 440.874 569.302 442.184 570.917 442.184Z" fill="#535556" stroke="#535556" stroke-width="3.50997"/>
<path d="M552.198 460.903C553.813 460.903 555.123 459.594 555.123 457.978C555.123 456.363 553.813 455.053 552.198 455.053C550.583 455.053 549.273 456.363 549.273 457.978C549.273 459.594 550.583 460.903 552.198 460.903Z" fill="#535556" stroke="#535556" stroke-width="3.50997"/>
<path d="M360.319 348.584C361.934 348.584 363.244 347.274 363.244 345.659C363.244 344.043 361.934 342.734 360.319 342.734C358.704 342.734 357.394 344.043 357.394 345.659C357.394 347.274 358.704 348.584 360.319 348.584Z" fill="#535556" stroke="#535556" stroke-width="3.50997"/>
<path d="M332.239 346.244C333.854 346.244 335.164 344.934 335.164 343.319C335.164 341.704 333.854 340.394 332.239 340.394C330.624 340.394 329.314 341.704 329.314 343.319C329.314 344.934 330.624 346.244 332.239 346.244Z" fill="#535556" stroke="#535556" stroke-width="3.50997"/>
<path d="M322.879 364.964C324.495 364.964 325.804 363.655 325.804 362.039C325.804 360.424 324.495 359.114 322.879 359.114C321.264 359.114 319.954 360.424 319.954 362.039C319.954 363.655 321.264 364.964 322.879 364.964Z" fill="#535556" stroke="#535556" stroke-width="3.50997"/>
<path d="M322.879 390.704C324.495 390.704 325.804 389.394 325.804 387.779C325.804 386.164 324.495 384.854 322.879 384.854C321.264 384.854 319.954 386.164 319.954 387.779C319.954 389.394 321.264 390.704 322.879 390.704Z" fill="#535556" stroke="#535556" stroke-width="3.50997"/>
<path d="M301.82 407.084C303.435 407.084 304.745 405.774 304.745 404.159C304.745 402.543 303.435 401.234 301.82 401.234C300.205 401.234 298.895 402.543 298.895 404.159C298.895 405.774 300.205 407.084 301.82 407.084Z" fill="#535556" stroke="#535556" stroke-width="3.50997"/>
<path d="M297.14 442.184C298.755 442.184 300.065 440.874 300.065 439.259C300.065 437.644 298.755 436.334 297.14 436.334C295.525 436.334 294.215 437.644 294.215 439.259C294.215 440.874 295.525 442.184 297.14 442.184Z" fill="#535556" stroke="#535556" stroke-width="3.50997"/>
<path d="M308.84 465.583C310.455 465.583 311.765 464.273 311.765 462.658C311.765 461.042 310.455 459.733 308.84 459.733C307.225 459.733 305.915 461.042 305.915 462.658C305.915 464.273 307.225 465.583 308.84 465.583Z" fill="#535556" stroke="#535556" stroke-width="3.50997"/>
<path d="M384.438 509.494C405.253 511.637 420.693 517.694 431.298 526.964C442.022 536.338 447.166 548.445 448.322 561.296C450.585 586.43 437.724 614.719 421.952 635.139L409.878 628.24C421.705 598.678 418.002 576.657 409.735 559.929C401.216 542.694 387.825 530.796 378.679 521.365L365.254 507.52L384.438 509.494Z" fill="#535556" stroke="white" stroke-width="14.0399"/>
<path d="M484.203 469.953C466.119 475.17 453.164 483.574 444.484 494.182C435.807 504.785 431.809 517.092 430.79 529.425C428.776 553.779 438.286 578.929 447.403 594.599L460.148 588.903C452.958 566.734 456.361 544.368 463.928 525.048C471.51 505.69 483.063 489.964 491.188 481.585L509.56 462.639L484.203 469.953Z" fill="#535556" stroke="white" stroke-width="14.0399"/>
<path d="M424.12 508.891C438.825 508.891 450.746 496.97 450.746 482.265C450.746 467.56 438.825 455.639 424.12 455.639C409.415 455.639 397.494 467.56 397.494 482.265C397.494 496.97 409.415 508.891 424.12 508.891Z" fill="#535556" stroke="white" stroke-width="14.0399"/>
<path d="M384.552 515.37C401.881 533.241 442.061 566.558 417.044 629.092C447.373 589.825 463.66 523.514 384.552 515.37Z" fill="#535556"/>
<path d="M486.4 475.816C469.071 493.686 438.312 541.45 453.908 589.538C436.579 559.753 418.817 495.311 486.4 475.816Z" fill="#535556"/>
<path d="M424.724 500.846C435.491 500.846 444.219 492.118 444.219 481.351C444.219 470.584 435.491 461.856 424.724 461.856C413.957 461.856 405.229 470.584 405.229 481.351C405.229 492.118 413.957 500.846 424.724 500.846Z" fill="#535556"/>
<path d="M301.818 553.918C305.695 553.918 308.838 550.775 308.838 546.898C308.838 543.021 305.695 539.878 301.818 539.878C297.941 539.878 294.798 543.021 294.798 546.898C294.798 550.775 297.941 553.918 301.818 553.918Z" fill="#535556"/>
<path d="M517.096 294.18C520.973 294.18 524.116 291.037 524.116 287.16C524.116 283.283 520.973 280.14 517.096 280.14C513.219 280.14 510.076 283.283 510.076 287.16C510.076 291.037 513.219 294.18 517.096 294.18Z" fill="#535556"/>
<path d="M549.855 553.918C553.732 553.918 556.875 550.775 556.875 546.898C556.875 543.021 553.732 539.878 549.855 539.878C545.978 539.878 542.835 543.021 542.835 546.898C542.835 550.775 545.978 553.918 549.855 553.918Z" fill="#535556"/>
<path d="M533.475 565.618C536.06 565.618 538.155 563.522 538.155 560.938C538.155 558.353 536.06 556.258 533.475 556.258C530.89 556.258 528.795 558.353 528.795 560.938C528.795 563.522 530.89 565.618 533.475 565.618Z" fill="#535556"/>
<path d="M315.857 565.618C313.272 565.618 311.177 563.522 311.177 560.938C311.177 558.353 313.272 556.258 315.857 556.258C318.442 556.258 320.537 558.353 320.537 560.938C320.537 563.522 318.442 565.618 315.857 565.618Z" fill="#535556"/>
<path d="M517.096 572.637C518.388 572.637 519.436 571.589 519.436 570.297C519.436 569.005 518.388 567.957 517.096 567.957C515.804 567.957 514.756 569.005 514.756 570.297C514.756 571.589 515.804 572.637 517.096 572.637Z" fill="#535556"/>
<path d="M329.897 572.638C328.605 572.638 327.557 571.59 327.557 570.298C327.557 569.006 328.605 567.958 329.897 567.958C331.189 567.958 332.237 569.006 332.237 570.298C332.237 571.59 331.189 572.638 329.897 572.638Z" fill="#535556"/>
<path d="M342.766 577.318C342.12 577.318 341.596 576.794 341.596 576.148C341.596 575.502 342.12 574.978 342.766 574.978C343.412 574.978 343.936 575.502 343.936 576.148C343.936 576.794 343.412 577.318 342.766 577.318Z" fill="#535556"/>
<path d="M504.226 577.318C503.58 577.318 503.056 576.794 503.056 576.148C503.056 575.502 503.58 574.978 504.226 574.978C504.872 574.978 505.396 575.502 505.396 576.148C505.396 576.794 504.872 577.318 504.226 577.318Z" fill="#535556"/>
<path d="M336.917 294.18C340.794 294.18 343.937 291.037 343.937 287.16C343.937 283.283 340.794 280.14 336.917 280.14C333.04 280.14 329.897 283.283 329.897 287.16C329.897 291.037 333.04 294.18 336.917 294.18Z" fill="#535556"/>
</g>
<defs>
<clipPath id="clip0_90_410">
<rect width="863" height="863" fill="white"/>
</clipPath>
</defs>
</svg>
