<svg width="85" height="79" viewBox="0 0 85 79" fill="none" xmlns="http://www.w3.org/2000/svg">
<g clip-path="url(#clip0_34_3591)">
<path d="M0 0H85V79H0V0Z" fill="#443CD5" fill-opacity="0.05"/>
<path d="M50.5703 57.243H35.9603C35.8133 57.243 35.6724 57.1846 35.5685 57.0807C35.4646 56.9768 35.4062 56.8359 35.4062 56.689V49.304C35.4062 49.1571 35.4646 49.0162 35.5685 48.9123C35.6724 48.8084 35.8133 48.75 35.9603 48.75H50.5703C50.643 48.75 50.715 48.7643 50.7823 48.7922C50.8495 48.82 50.9105 48.8608 50.962 48.9123C51.0134 48.9637 51.0542 49.0248 51.0821 49.092C51.1099 49.1592 51.1243 49.2312 51.1243 49.304V56.689C51.1243 56.7618 51.1099 56.8338 51.0821 56.901C51.0542 56.9682 51.0134 57.0293 50.962 57.0807C50.9105 57.1322 50.8495 57.173 50.7823 57.2008C50.715 57.2287 50.643 57.243 50.5703 57.243ZM36.5143 56.135H50.0163V49.858H36.5143V56.135Z" fill="#443CD5"/>
<path d="M53.0314 59.784H33.4974C33.4246 59.784 33.3526 59.7697 33.2854 59.7418C33.2181 59.714 33.1571 59.6732 33.1056 59.6217C33.0542 59.5703 33.0134 59.5092 32.9855 59.442C32.9577 59.3748 32.9434 59.3028 32.9434 59.23V56.689C32.9434 56.5421 33.0017 56.4012 33.1056 56.2973C33.2095 56.1934 33.3504 56.135 33.4974 56.135H53.0294C53.1022 56.1349 53.1743 56.1491 53.2417 56.1769C53.309 56.2047 53.3702 56.2455 53.4217 56.2969C53.4733 56.3484 53.5142 56.4095 53.5421 56.4768C53.57 56.544 53.5844 56.6162 53.5844 56.689V59.229C53.5845 59.3018 53.5703 59.374 53.5425 59.4413C53.5147 59.5086 53.4739 59.5698 53.4225 59.6214C53.371 59.6729 53.3099 59.7138 53.2426 59.7417C53.1753 59.7696 53.1032 59.784 53.0304 59.784H53.0314ZM34.0514 58.676H52.4764V57.243H34.0524V58.676H34.0514ZM43.2644 42.603C37.7104 42.603 33.1914 35.443 33.1914 26.646C33.1884 24.896 33.3724 23.149 33.7404 21.438C33.7669 21.3141 33.835 21.2031 33.9335 21.1234C34.0319 21.0437 34.1547 21.0002 34.2814 21H52.2474C52.3739 21.0001 52.4965 21.0435 52.595 21.123C52.6934 21.2025 52.7616 21.3133 52.7884 21.437C53.1564 23.148 53.3404 24.894 53.3384 26.645C53.3384 35.444 48.8184 42.603 43.2644 42.603ZM34.7324 22.108C34.4422 23.6025 34.2972 25.1216 34.2994 26.644C34.2994 34.833 38.3204 41.493 43.2644 41.493C48.2074 41.493 52.2294 34.831 52.2294 26.644C52.2318 25.1216 52.0872 23.6025 51.7974 22.108H34.7324Z" fill="#443CD5"/>
<path d="M41.9038 47.448H41.8618C41.7892 47.4424 41.7184 47.4226 41.6535 47.3897C41.5886 47.3568 41.5309 47.3114 41.4835 47.2562C41.4361 47.2009 41.4001 47.1369 41.3775 47.0677C41.3549 46.9985 41.3462 46.9256 41.3518 46.853C41.4931 45.1019 41.136 43.3466 40.3218 41.79C40.2532 41.6599 40.2391 41.5079 40.2826 41.3675C40.3261 41.227 40.4237 41.1096 40.5538 41.041C40.6839 40.9724 40.8358 40.9584 40.9763 41.0019C41.1168 41.0454 41.2342 41.1429 41.3028 41.273C42.2136 43.0148 42.6133 44.9787 42.4558 46.938C42.4447 47.0768 42.3818 47.2064 42.2795 47.3009C42.1772 47.3954 42.043 47.4479 41.9038 47.448ZM44.6278 47.448C44.4878 47.4484 44.3529 47.3958 44.2502 47.3009C44.1474 47.2059 44.0844 47.0755 44.0738 46.936C43.9162 44.9767 44.316 43.0128 45.2268 41.271C45.3001 41.1501 45.4169 41.0617 45.5532 41.024C45.6895 40.9862 45.8351 41.002 45.9602 41.068C46.0853 41.134 46.1805 41.2453 46.2263 41.3791C46.2722 41.5129 46.2652 41.6592 46.2068 41.788C45.3931 43.3452 45.0367 45.1008 45.1788 46.852C45.1898 46.9984 45.1423 47.1431 45.0467 47.2545C44.951 47.3659 44.8151 47.4348 44.6688 47.446L44.6278 47.448Z" fill="#443CD5"/>
<path d="M48.062 49.858C47.9366 49.858 47.8149 49.8155 47.7168 49.7373C47.6188 49.6592 47.5501 49.5502 47.522 49.428C47.254 48.25 45.386 47.329 43.265 47.329C41.145 47.329 39.276 48.25 39.008 49.427C38.9939 49.4998 38.9653 49.5691 38.9238 49.6307C38.8824 49.6924 38.829 49.745 38.7669 49.7856C38.7047 49.8261 38.635 49.8538 38.562 49.8669C38.4889 49.88 38.4139 49.8783 38.3415 49.8619C38.2692 49.8455 38.2008 49.8147 38.1405 49.7713C38.0803 49.728 38.0294 49.6729 37.9908 49.6095C37.9522 49.5461 37.9268 49.4756 37.916 49.4021C37.9052 49.3287 37.9093 49.2538 37.928 49.182C38.315 47.464 40.561 46.221 43.265 46.221C45.969 46.221 48.214 47.467 48.603 49.181C48.6215 49.2621 48.6214 49.3463 48.6029 49.4274C48.5844 49.5085 48.5478 49.5844 48.4959 49.6494C48.4441 49.7145 48.3782 49.767 48.3033 49.8031C48.2283 49.8392 48.1452 49.8579 48.062 49.858ZM36.258 37.622C36.2346 37.6217 36.2112 37.62 36.188 37.617C34.2022 37.3592 32.3779 36.3879 31.0553 34.8843C29.7328 33.3807 29.0023 31.4474 29 29.445V25.599C29.0003 24.8476 29.2986 24.127 29.8295 23.5953C30.3605 23.0636 31.0806 22.7643 31.832 22.763H33.97C34.1169 22.763 34.2578 22.8213 34.3617 22.9252C34.4656 23.0291 34.524 23.17 34.524 23.317C34.524 23.4639 34.4656 23.6048 34.3617 23.7087C34.2578 23.8126 34.1169 23.871 33.97 23.871H31.832C31.3744 23.872 30.9359 24.0545 30.6127 24.3785C30.2895 24.7024 30.108 25.1414 30.108 25.599V29.443C30.1101 31.1756 30.7424 32.8483 31.8868 34.1491C33.0312 35.45 34.6098 36.2901 36.328 36.513C36.4751 36.5222 36.6124 36.5896 36.7098 36.7001C36.8073 36.8107 36.8568 36.9554 36.8475 37.1025C36.8382 37.2495 36.7709 37.3869 36.6603 37.4843C36.5498 37.5817 36.4051 37.6312 36.258 37.622ZM50.272 37.622C50.13 37.6229 49.993 37.5694 49.8892 37.4725C49.7854 37.3757 49.7225 37.2427 49.7136 37.101C49.7046 36.9593 49.7502 36.8195 49.8411 36.7104C49.9319 36.6012 50.061 36.5309 50.202 36.514C51.9202 36.2911 53.4988 35.451 54.6432 34.1501C55.7876 32.8493 56.4199 31.1766 56.422 29.444V25.599C56.4225 25.1415 56.2415 24.7024 55.9186 24.3783C55.5958 24.0541 55.1575 23.8713 54.7 23.87H52.56C52.4131 23.87 52.2722 23.8116 52.1683 23.7077C52.0644 23.6038 52.006 23.4629 52.006 23.316C52.006 23.169 52.0644 23.0281 52.1683 22.9242C52.2722 22.8203 52.4131 22.762 52.56 22.762H54.7C55.4512 22.7636 56.1711 23.063 56.7018 23.5947C57.2325 24.1263 57.5307 24.8468 57.531 25.598V29.442C57.5287 31.4564 56.7893 33.4004 55.4522 34.9071C54.1151 36.4138 52.2729 37.3792 50.273 37.621L50.272 37.622Z" fill="#443CD5"/>
</g>
<defs>
<clipPath id="clip0_34_3591">
<rect width="85" height="79" fill="white"/>
</clipPath>
</defs>
</svg>
