<svg width="85" height="79" viewBox="0 0 85 79" fill="none" xmlns="http://www.w3.org/2000/svg">
<g clip-path="url(#clip0_34_3614)">
<path d="M42.6663 30.4741C41.3051 30.4754 40.0001 31.0166 39.0374 31.9789C38.0748 32.9412 37.5331 34.246 37.5312 35.6071C37.5328 36.9684 38.0744 38.2735 39.0371 39.236C39.9998 40.1985 41.3049 40.7398 42.6663 40.7411C44.0277 40.7401 45.3332 40.1989 46.2961 39.2364C47.259 38.2738 47.8007 36.9686 47.8022 35.6071C47.8004 34.2458 47.2586 32.9408 46.2957 31.9785C45.3329 31.0162 44.0276 30.4752 42.6663 30.4741ZM42.6663 39.2741C41.6938 39.2733 40.7613 38.8868 40.0735 38.1993C39.3856 37.5119 38.9986 36.5796 38.9973 35.6071C38.9988 34.6346 39.3861 33.7025 40.0742 33.0152C40.7622 32.3279 41.6948 31.9416 42.6673 31.9411C43.6396 31.9419 44.5719 32.3283 45.2597 33.0156C45.9475 33.7028 46.3347 34.6348 46.3363 35.6071C46.3349 36.5798 45.9477 37.5122 45.2597 38.1997C44.5716 38.8872 43.6389 39.2736 42.6663 39.2741Z" fill="#443CD5"/>
<path d="M51.455 40.0131C51.457 39.8561 51.467 39.7001 51.467 39.5431C51.467 31.1621 48.447 23.3861 43.181 18.2101C43.0437 18.0757 42.8591 18.0005 42.667 18.0005C42.4749 18.0005 42.2903 18.0757 42.153 18.2101C36.887 23.3861 33.867 31.1621 33.867 39.5431C33.867 39.7001 33.877 39.8561 33.879 40.0131C30.345 41.8501 28 46.7651 28 52.4661C28 52.8711 28.328 53.2001 28.733 53.2001H37.692L36.16 55.7531C36.0933 55.8643 36.0573 55.9912 36.0557 56.1208C36.054 56.2505 36.0868 56.3782 36.1506 56.491C36.2145 56.6039 36.3071 56.6978 36.4191 56.7631C36.5311 56.8285 36.6583 56.863 36.788 56.8631H48.524C48.6537 56.8632 48.7812 56.8288 48.8933 56.7635C49.0054 56.6982 49.0981 56.6044 49.1621 56.4915C49.2261 56.3786 49.2589 56.2508 49.2573 56.1211C49.2557 55.9913 49.2197 55.8644 49.153 55.7531L47.62 53.2001H56.6C56.6963 53.2001 56.7917 53.1811 56.8807 53.1442C56.9697 53.1073 57.0506 53.0532 57.1187 52.9851C57.1867 52.9169 57.2407 52.836 57.2775 52.7469C57.3143 52.6579 57.3331 52.5624 57.333 52.4661C57.333 46.7651 54.989 41.8511 51.455 40.0131ZM42.667 19.7781C44.217 21.4031 45.539 23.2801 46.623 25.3401H38.71C39.794 23.2801 41.118 21.4031 42.667 19.7781ZM29.48 51.7331C29.655 47.3031 31.403 43.4151 33.94 41.6801C34.162 45.1891 34.926 48.6101 36.185 51.7331H29.48ZM38.083 55.3971L39.402 53.2001H45.909L47.228 55.3971H38.083ZM47.569 51.7331H37.763C36.172 48.0171 35.333 43.8131 35.333 39.5431C35.333 34.9851 36.27 30.6251 37.995 26.8071H47.337C49.063 30.6251 50 34.9851 50 39.5431C50 43.8131 49.159 48.0171 47.569 51.7331ZM49.147 51.7331C50.406 48.6101 51.17 45.1891 51.391 41.6801C53.929 43.4151 55.677 47.3031 55.851 51.7331H49.147ZM42.667 57.6001C42.5707 57.6001 42.4753 57.6191 42.3863 57.656C42.2973 57.6929 42.2164 57.747 42.1483 57.8151C42.0803 57.8833 42.0263 57.9642 41.9895 58.0533C41.9527 58.1423 41.9339 58.2378 41.934 58.3341V61.2671C41.934 61.4615 42.0112 61.6479 42.1487 61.7854C42.2862 61.9229 42.4726 62.0001 42.667 62.0001C42.8614 62.0001 43.0478 61.9229 43.1853 61.7854C43.3228 61.6479 43.4 61.4615 43.4 61.2671V58.3341C43.4 58.1397 43.3228 57.9533 43.1853 57.8158C43.0478 57.6783 42.8614 57.6011 42.667 57.6011V57.6001ZM38.996 57.6001C38.8997 57.6001 38.8043 57.6191 38.7153 57.656C38.6263 57.6929 38.5454 57.747 38.4773 57.8151C38.4093 57.8833 38.3553 57.9642 38.3185 58.0533C38.2817 58.1423 38.2629 58.2378 38.263 58.3341V59.8001C38.263 59.9945 38.3402 60.181 38.4777 60.3184C38.6152 60.4559 38.8016 60.5331 38.996 60.5331C39.1904 60.5331 39.3768 60.4559 39.5143 60.3184C39.6518 60.181 39.729 59.9945 39.729 59.8001V58.3351C39.729 58.1407 39.6518 57.9543 39.5143 57.8168C39.3768 57.6793 39.1904 57.6021 38.996 57.6021V57.6001ZM46.338 57.6001C46.2416 57.6 46.1461 57.6189 46.057 57.6557C45.9678 57.6925 45.8869 57.7466 45.8187 57.8148C45.7505 57.883 45.6964 57.9639 45.6596 58.0531C45.6228 58.1422 45.6039 58.2377 45.604 58.3341V59.8001C45.604 59.9946 45.6813 60.1812 45.8188 60.3188C45.9564 60.4563 46.143 60.5336 46.3375 60.5336C46.532 60.5336 46.7186 60.4563 46.8562 60.3188C46.9937 60.1812 47.071 59.9946 47.071 59.8001V58.3351C47.071 58.1407 46.9938 57.9543 46.8563 57.8168C46.7188 57.6793 46.5324 57.6021 46.338 57.6021V57.6001Z" fill="#443CD5"/>
<path d="M0 0H85V79H0V0Z" fill="#443CD5" fill-opacity="0.05"/>
</g>
<defs>
<clipPath id="clip0_34_3614">
<rect width="85" height="79" fill="white"/>
</clipPath>
</defs>
</svg>
