<svg width="85" height="79" viewBox="0 0 85 79" fill="none" xmlns="http://www.w3.org/2000/svg">
<g clip-path="url(#clip0_34_3604)">
<path d="M0 0H85V79H0V0Z" fill="#443CD5" fill-opacity="0.05"/>
<path d="M27.0002 38.38H40.2672C40.6332 38.38 40.9332 38.08 40.9332 37.713V24.447C40.9332 24.08 40.6332 23.78 40.2672 23.78H27.0002C26.6342 23.78 26.3342 24.08 26.3342 24.447V37.713C26.3342 38.08 26.6342 38.38 27.0002 38.38ZM27.6672 25.113H39.6002V37.047H27.6672V25.113ZM52.3672 23.78C50.4316 23.7816 48.5758 24.5512 47.2071 25.9199C45.8384 27.2886 45.0688 29.1444 45.0672 31.08C45.0672 35.107 48.3402 38.38 52.3672 38.38C56.3942 38.38 59.6672 35.107 59.6672 31.08C59.6672 27.053 56.3942 23.78 52.3672 23.78ZM52.3672 37.047C50.7852 37.0452 49.2686 36.4159 48.15 35.2973C47.0313 34.1787 46.4021 32.662 46.4002 31.08C46.4031 29.4984 47.0327 27.9823 48.1511 26.8639C49.2695 25.7455 50.7856 25.1159 52.3672 25.113C53.9493 25.1146 55.4661 25.7438 56.5848 26.8625C57.7035 27.9812 58.3326 29.498 58.3342 31.08C58.3326 32.6621 57.7035 34.1789 56.5848 35.2976C55.4661 36.4163 53.9493 37.0454 52.3672 37.047ZM45.7332 56.22H59.0002C59.1171 56.2195 59.2318 56.1884 59.3329 56.1298C59.434 56.0713 59.5181 55.9873 59.5767 55.8862C59.6353 55.7851 59.6665 55.6704 59.6671 55.5536C59.6677 55.4367 59.6378 55.3217 59.5802 55.22L52.9472 43.733C52.7072 43.32 52.0272 43.32 51.7932 43.733L45.1602 55.227C45.1021 55.3276 45.0715 55.4418 45.0715 55.558C45.0715 55.6741 45.1021 55.7883 45.1601 55.8889C45.2182 55.9895 45.3017 56.0731 45.4023 56.1312C45.5029 56.1893 45.617 56.22 45.7332 56.22ZM52.3672 45.4L57.8472 54.893H46.8872L52.3672 45.4ZM36.9532 43.4H30.3202C30.2028 43.3999 30.0875 43.4305 29.9857 43.489C29.8839 43.5474 29.7993 43.6316 29.7402 43.733L26.4202 49.48C26.3612 49.5813 26.3301 49.6963 26.3301 49.8135C26.3301 49.9307 26.3612 50.0458 26.4202 50.147L29.7402 55.893C29.8602 56.1 30.0802 56.227 30.3202 56.227H36.9532C37.1932 56.227 37.4132 56.1 37.5332 55.893L40.8532 50.147C40.9123 50.0458 40.9434 49.9307 40.9434 49.8135C40.9434 49.6963 40.9123 49.5813 40.8532 49.48L37.5332 43.733C37.473 43.6326 37.3881 43.5493 37.2866 43.4911C37.185 43.4328 37.0703 43.4014 36.9532 43.4ZM36.5672 54.887H30.7002L27.7672 49.807L30.7002 44.727H36.5672L39.5002 49.807L36.5672 54.887Z" fill="#443CD5"/>
</g>
<defs>
<clipPath id="clip0_34_3604">
<rect width="85" height="79" fill="white"/>
</clipPath>
</defs>
</svg>
