<svg width="72" height="72" viewBox="0 0 72 72" fill="none" xmlns="http://www.w3.org/2000/svg">
<g clip-path="url(#clip0_34_2076)">
<g clip-path="url(#clip1_34_2076)">
<g clip-path="url(#clip2_34_2076)">
<path d="M36 72C55.8823 72 72 55.8823 72 36C72 16.1177 55.8823 0 36 0C16.1177 0 0 16.1177 0 36C0 55.8823 16.1177 72 36 72Z" fill="#443CD5"/>
<path d="M47.834 27.55H41.917V26.367C41.9163 25.7395 41.6666 25.1379 41.2229 24.6942C40.7792 24.2504 40.1776 24.0008 39.55 24H32.4501C31.8226 24.0008 31.2211 24.2505 30.7776 24.6942C30.334 25.138 30.0846 25.7396 30.084 26.367V27.55H24.167C23.5395 27.5508 22.9379 27.8004 22.4942 28.2442C22.0505 28.6879 21.8008 29.2895 21.8 29.917V45.3C21.8008 45.9275 22.0505 46.5291 22.4942 46.9728C22.9379 47.4166 23.5395 47.6662 24.167 47.667H47.834C48.4616 47.6662 49.0632 47.4166 49.5069 46.9728C49.9506 46.5291 50.2003 45.9275 50.201 45.3V29.918C50.2003 29.2905 49.9506 28.6889 49.5069 28.2452C49.0632 27.8014 48.4616 27.5518 47.834 27.551V27.55ZM31.267 26.367C31.267 25.714 31.798 25.183 32.4501 25.183H39.55C40.203 25.183 40.7341 25.714 40.7341 26.367V27.55H31.267V26.367ZM49.017 45.3C49.017 45.952 48.487 46.483 47.834 46.483H24.167C23.8533 46.4827 23.5524 46.358 23.3305 46.1363C23.1085 45.9145 22.9836 45.6138 22.983 45.3V36.687C23.333 36.891 23.733 37.016 24.167 37.016H33.634V38.791C33.634 39.118 33.898 39.383 34.225 39.383H37.7751C37.8528 39.3831 37.9299 39.3679 38.0018 39.3382C38.0736 39.3085 38.139 39.2649 38.194 39.2099C38.2489 39.1549 38.2925 39.0896 38.3223 39.0177C38.352 38.9458 38.3672 38.8688 38.3671 38.791V37.016H47.834C48.2507 37.0133 48.6591 36.8994 49.017 36.686V45.3ZM34.8171 38.2V35.833H37.184V38.2H34.8171ZM49.017 34.65C49.017 35.302 48.487 35.833 47.834 35.833H38.3671V35.241C38.3672 35.1632 38.352 35.0862 38.3223 35.0143C38.2925 34.9424 38.2489 34.8771 38.194 34.8221C38.139 34.7671 38.0736 34.7235 38.0018 34.6938C37.9299 34.6641 37.8528 34.6489 37.7751 34.649H34.225C34.1474 34.649 34.0704 34.6643 33.9987 34.6941C33.9269 34.7238 33.8617 34.7675 33.8068 34.8225C33.7519 34.8774 33.7084 34.9427 33.6787 35.0145C33.6491 35.0863 33.6339 35.1633 33.634 35.241V35.833H24.167C23.8531 35.8327 23.5521 35.7079 23.3301 35.4859C23.1081 35.2639 22.9833 34.9629 22.983 34.649V29.916C22.983 29.264 23.515 28.732 24.167 28.732H47.834C48.486 28.732 49.017 29.264 49.017 29.916V34.649V34.65Z" fill="white"/>
</g>
</g>
</g>
<defs>
<clipPath id="clip0_34_2076">
<rect width="72" height="72" rx="36" fill="white"/>
</clipPath>
<clipPath id="clip1_34_2076">
<rect width="72" height="72" fill="white"/>
</clipPath>
<clipPath id="clip2_34_2076">
<rect width="72" height="72" fill="white"/>
</clipPath>
</defs>
</svg>
