<svg width="72" height="72" viewBox="0 0 72 72" fill="none" xmlns="http://www.w3.org/2000/svg">
<g clip-path="url(#clip0_34_2059)">
<g clip-path="url(#clip1_34_2059)">
<g clip-path="url(#clip2_34_2059)">
<path d="M36 72C55.8823 72 72 55.8823 72 36C72 16.1177 55.8823 0 36 0C16.1177 0 0 16.1177 0 36C0 55.8823 16.1177 72 36 72Z" fill="#443CD5"/>
<path fill-rule="evenodd" clip-rule="evenodd" d="M36.378 51.0839C36.3312 51.0839 36.2849 51.0747 36.2417 51.0568C36.1985 51.0389 36.1593 51.0127 36.1262 50.9796C36.0932 50.9466 36.067 50.9073 36.0491 50.8641C36.0312 50.821 36.022 50.7747 36.022 50.7279V28.9639C36.022 28.8695 36.0595 28.7789 36.1262 28.7122C36.193 28.6454 36.2836 28.6079 36.378 28.6079C36.4724 28.6079 36.5629 28.6454 36.6297 28.7122C36.6965 28.7789 36.734 28.8695 36.734 28.9639V50.7279C36.734 50.9239 36.574 51.0839 36.378 51.0839Z" fill="white"/>
<path fill-rule="evenodd" clip-rule="evenodd" d="M50.662 51.0841H22.092C21.49 51.0841 21 50.5941 21 49.9911V29.7031C21 29.1011 21.49 28.6111 22.092 28.6111H23.72C23.8144 28.6111 23.905 28.6486 23.9717 28.7154C24.0385 28.7821 24.076 28.8727 24.076 28.9671C24.076 29.0615 24.0385 29.1521 23.9717 29.2188C23.905 29.2856 23.8144 29.3231 23.72 29.3231H22.092C21.9912 29.3231 21.8946 29.3631 21.8233 29.4344C21.752 29.5056 21.712 29.6023 21.712 29.7031V49.9911C21.712 50.2011 21.883 50.3711 22.092 50.3711H50.662C50.872 50.3711 51.042 50.2011 51.042 49.9911V29.7031C51.042 29.6023 51.002 29.5056 50.9307 29.4344C50.8594 29.3631 50.7628 29.3231 50.662 29.3231H49.036C48.9416 29.3231 48.851 29.2856 48.7843 29.2188C48.7175 29.1521 48.68 29.0615 48.68 28.9671C48.68 28.8727 48.7175 28.7821 48.7843 28.7154C48.851 28.6486 48.9416 28.6111 49.036 28.6111H50.662C51.264 28.6111 51.754 29.1011 51.754 29.7031V49.9911C51.754 50.5931 51.264 51.0841 50.662 51.0841Z" fill="white"/>
<path fill-rule="evenodd" clip-rule="evenodd" d="M33.5 34.3789H26.597C26.5026 34.3789 26.412 34.3414 26.3452 34.2746C26.2785 34.2079 26.241 34.1173 26.241 34.0229C26.241 33.9285 26.2785 33.8379 26.3452 33.7712C26.412 33.7044 26.5026 33.6669 26.597 33.6669H33.5C33.5944 33.6669 33.6849 33.7044 33.7517 33.7712C33.8185 33.8379 33.856 33.9285 33.856 34.0229C33.856 34.1173 33.8185 34.2079 33.7517 34.2746C33.6849 34.3414 33.5944 34.3789 33.5 34.3789ZM33.5 38.0109H26.597C26.5026 38.0109 26.412 37.9734 26.3452 37.9066C26.2785 37.8399 26.241 37.7493 26.241 37.6549C26.241 37.5605 26.2785 37.4699 26.3452 37.4032C26.412 37.3364 26.5026 37.2989 26.597 37.2989H33.5C33.5944 37.2989 33.6849 37.3364 33.7517 37.4032C33.8185 37.4699 33.856 37.5605 33.856 37.6549C33.856 37.7493 33.8185 37.8399 33.7517 37.9066C33.6849 37.9734 33.5944 38.0109 33.5 38.0109ZM33.5 41.6429H26.597C26.5026 41.6429 26.412 41.6054 26.3452 41.5386C26.2785 41.4719 26.241 41.3813 26.241 41.2869C26.241 41.1925 26.2785 41.1019 26.3452 41.0352C26.412 40.9684 26.5026 40.9309 26.597 40.9309H33.5C33.5944 40.9309 33.6849 40.9684 33.7517 41.0352C33.8185 41.1019 33.856 41.1925 33.856 41.2869C33.856 41.3813 33.8185 41.4719 33.7517 41.5386C33.6849 41.6054 33.5944 41.6429 33.5 41.6429ZM33.5 30.7469H26.597C26.5026 30.7469 26.412 30.7094 26.3452 30.6426C26.2785 30.5759 26.241 30.4853 26.241 30.3909C26.241 30.2965 26.2785 30.2059 26.3452 30.1392C26.412 30.0724 26.5026 30.0349 26.597 30.0349H33.5C33.5944 30.0349 33.6849 30.0724 33.7517 30.1392C33.8185 30.2059 33.856 30.2965 33.856 30.3909C33.856 30.4853 33.8185 30.5759 33.7517 30.6426C33.6849 30.7094 33.5944 30.7469 33.5 30.7469ZM33.5 45.2759H26.597C26.5026 45.2759 26.412 45.2384 26.3452 45.1716C26.2785 45.1049 26.241 45.0143 26.241 44.9199C26.241 44.8255 26.2785 44.7349 26.3452 44.6682C26.412 44.6014 26.5026 44.5639 26.597 44.5639H33.5C33.5944 44.5639 33.6849 44.6014 33.7517 44.6682C33.8185 44.7349 33.856 44.8255 33.856 44.9199C33.856 45.0143 33.8185 45.1049 33.7517 45.1716C33.6849 45.2384 33.5944 45.2759 33.5 45.2759ZM46.158 34.3789H39.255C39.1606 34.3789 39.07 34.3414 39.0032 34.2746C38.9365 34.2079 38.899 34.1173 38.899 34.0229C38.899 33.9285 38.9365 33.8379 39.0032 33.7712C39.07 33.7044 39.1606 33.6669 39.255 33.6669H46.158C46.2524 33.6669 46.3429 33.7044 46.4097 33.7712C46.4765 33.8379 46.514 33.9285 46.514 34.0229C46.514 34.1173 46.4765 34.2079 46.4097 34.2746C46.3429 34.3414 46.2524 34.3789 46.158 34.3789ZM46.158 38.0109H39.255C39.1606 38.0109 39.07 37.9734 39.0032 37.9066C38.9365 37.8399 38.899 37.7493 38.899 37.6549C38.899 37.5605 38.9365 37.4699 39.0032 37.4032C39.07 37.3364 39.1606 37.2989 39.255 37.2989H46.158C46.2524 37.2989 46.3429 37.3364 46.4097 37.4032C46.4765 37.4699 46.514 37.5605 46.514 37.6549C46.514 37.7493 46.4765 37.8399 46.4097 37.9066C46.3429 37.9734 46.2524 38.0109 46.158 38.0109ZM46.158 41.6429H39.255C39.1606 41.6429 39.07 41.6054 39.0032 41.5386C38.9365 41.4719 38.899 41.3813 38.899 41.2869C38.899 41.1925 38.9365 41.1019 39.0032 41.0352C39.07 40.9684 39.1606 40.9309 39.255 40.9309H46.158C46.2524 40.9309 46.3429 40.9684 46.4097 41.0352C46.4765 41.1019 46.514 41.1925 46.514 41.2869C46.514 41.3813 46.4765 41.4719 46.4097 41.5386C46.3429 41.6054 46.2524 41.6429 46.158 41.6429ZM46.158 30.7469H39.255C39.1606 30.7469 39.07 30.7094 39.0032 30.6426C38.9365 30.5759 38.899 30.4853 38.899 30.3909C38.899 30.2965 38.9365 30.2059 39.0032 30.1392C39.07 30.0724 39.1606 30.0349 39.255 30.0349H46.158C46.2524 30.0349 46.3429 30.0724 46.4097 30.1392C46.4765 30.2059 46.514 30.2965 46.514 30.3909C46.514 30.4853 46.4765 30.5759 46.4097 30.6426C46.3429 30.7094 46.2524 30.7469 46.158 30.7469ZM46.158 45.2759H39.255C39.1606 45.2759 39.07 45.2384 39.0032 45.1716C38.9365 45.1049 38.899 45.0143 38.899 44.9199C38.899 44.8255 38.9365 44.7349 39.0032 44.6682C39.07 44.6014 39.1606 44.5639 39.255 44.5639H46.158C46.2524 44.5639 46.3429 44.6014 46.4097 44.6682C46.4765 44.7349 46.514 44.8255 46.514 44.9199C46.514 45.0143 46.4765 45.1049 46.4097 45.1716C46.3429 45.2384 46.2524 45.2759 46.158 45.2759Z" fill="white"/>
<path fill-rule="evenodd" clip-rule="evenodd" d="M36.378 51.083C36.075 51.083 35.783 50.994 35.532 50.827C35.322 50.687 35.109 50.508 34.902 50.336C34.542 50.034 34.167 49.723 33.82 49.617C33.2133 49.4338 32.5829 49.3408 31.949 49.341H24.395C24.1214 49.3407 23.8591 49.2319 23.6656 49.0384C23.4721 48.845 23.3633 48.5826 23.363 48.309V26.815C23.363 26.359 23.67 25.951 24.11 25.823C24.917 25.589 26.99 25.373 30.445 25.163C30.4917 25.1602 30.5384 25.1666 30.5825 25.1818C30.6267 25.197 30.6674 25.2208 30.7024 25.2518C30.7373 25.2827 30.7658 25.3203 30.7863 25.3623C30.8067 25.4043 30.8187 25.4499 30.8215 25.4965C30.8244 25.5431 30.818 25.5898 30.8027 25.634C30.7875 25.6781 30.7637 25.7189 30.7328 25.7538C30.7018 25.7888 30.6642 25.8173 30.6223 25.8378C30.5803 25.8582 30.5347 25.8702 30.488 25.873C27.133 26.078 25.053 26.291 24.308 26.507C24.2412 26.5264 24.1824 26.5668 24.1404 26.6223C24.0985 26.6778 24.0755 26.7454 24.075 26.815V48.309C24.075 48.485 24.218 48.629 24.395 48.629H31.949C32.653 48.629 33.352 48.732 34.027 48.937C34.513 49.084 34.943 49.443 35.359 49.79C35.559 49.957 35.749 50.115 35.927 50.234C36.0602 50.3235 36.2171 50.3712 36.3775 50.3712C36.538 50.3712 36.6948 50.3235 36.828 50.234C37.993 49.457 39.357 48.629 40.805 48.629H48.359C48.4439 48.629 48.5253 48.5953 48.5853 48.5353C48.6453 48.4753 48.679 48.3939 48.679 48.309V26.815C48.6792 26.745 48.6564 26.6769 48.6141 26.621C48.5719 26.5652 48.5125 26.5248 48.445 26.506C47.701 26.291 45.621 26.078 42.265 25.874C42.2184 25.8711 42.1728 25.8591 42.1309 25.8386C42.0889 25.8181 42.0514 25.7895 42.0205 25.7545C41.958 25.6838 41.9262 25.5912 41.932 25.497C41.9379 25.4029 41.9809 25.3149 42.0516 25.2524C42.1223 25.19 42.2149 25.1582 42.309 25.164C45.765 25.374 47.837 25.589 48.644 25.823C49.084 25.952 49.391 26.359 49.391 26.815V48.309C49.391 48.877 48.928 49.341 48.359 49.341H40.805C39.559 49.341 38.307 50.104 37.231 50.821L37.222 50.827C36.972 50.995 36.68 51.083 36.378 51.083Z" fill="white"/>
<path fill-rule="evenodd" clip-rule="evenodd" d="M31.1621 20.712C31.0725 20.7123 30.9867 20.748 30.9234 20.8113C30.86 20.8746 30.8243 20.9604 30.8241 21.05V26.532C30.8241 26.718 30.9751 26.87 31.1621 26.87H35.0541C35.4661 26.87 35.8341 27.1 36.0171 27.469L36.3671 28.181L36.7171 27.469C36.8991 27.099 37.2671 26.87 37.6791 26.87H41.5941C41.6836 26.8697 41.7694 26.834 41.8328 26.7707C41.8961 26.7074 41.9318 26.6216 41.9321 26.532V21.05C41.9315 20.9603 41.8956 20.8745 41.8321 20.8112C41.7686 20.7479 41.6827 20.7123 41.5931 20.712H31.1621ZM36.3771 29.322H36.3571C36.2904 29.3221 36.2251 29.3035 36.1686 29.2683C36.112 29.2331 36.0664 29.1828 36.0371 29.123L35.3771 27.783C35.3475 27.7225 35.3016 27.6715 35.2445 27.6358C35.1874 27.6001 35.1214 27.5811 35.0541 27.581H31.1621C30.8836 27.581 30.6165 27.4704 30.4196 27.2735C30.2227 27.0765 30.1121 26.8095 30.1121 26.531V21.051C30.1121 20.471 30.5831 20 31.1621 20H41.5931C42.1731 20 42.6441 20.471 42.6441 21.05V26.532C42.6441 27.111 42.1731 27.582 41.5941 27.582H37.6791C37.6117 27.5818 37.5455 27.6005 37.4883 27.6361C37.431 27.6716 37.3848 27.7225 37.3551 27.783L36.6961 29.123C36.6667 29.1828 36.6211 29.2331 36.5645 29.2683C36.508 29.3035 36.4437 29.3221 36.3771 29.322Z" fill="white"/>
<path fill-rule="evenodd" clip-rule="evenodd" d="M35.2869 26.0899H32.6969C32.6501 26.0899 32.6037 26.0807 32.5605 26.0627C32.5172 26.0447 32.4779 26.0184 32.4449 25.9853C32.4118 25.9521 32.3856 25.9127 32.3678 25.8694C32.3499 25.8261 32.3408 25.7797 32.3409 25.7329V21.8499C32.3409 21.6529 32.4999 21.4939 32.6959 21.4939H35.2859C35.3804 21.4939 35.4709 21.5314 35.5377 21.5982C35.6044 21.6649 35.6419 21.7555 35.6419 21.8499C35.6419 21.9443 35.6044 22.0349 35.5377 22.1016C35.4709 22.1684 35.3804 22.2059 35.2859 22.2059H33.0519V25.3779H35.2869C35.3814 25.3779 35.4719 25.4154 35.5387 25.4822C35.6054 25.5489 35.6429 25.6395 35.6429 25.7339C35.6429 25.8283 35.6054 25.9189 35.5387 25.9856C35.4719 26.0524 35.3814 26.0899 35.2869 26.0899Z" fill="white"/>
<path fill-rule="evenodd" clip-rule="evenodd" d="M35.2869 24.147H32.6969C32.6025 24.147 32.512 24.1095 32.4452 24.0428C32.3785 23.976 32.3409 23.8855 32.3409 23.791C32.3409 23.6966 32.3785 23.6061 32.4452 23.5393C32.512 23.4725 32.6025 23.435 32.6969 23.435H35.2869C35.3814 23.435 35.4719 23.4725 35.5387 23.5393C35.6054 23.6061 35.6429 23.6966 35.6429 23.791C35.6429 23.8855 35.6054 23.976 35.5387 24.0428C35.4719 24.1095 35.3814 24.147 35.2869 24.147ZM40.0599 26.09C40.0012 26.0901 39.9433 26.0756 39.8914 26.0479C39.8396 26.0202 39.7955 25.98 39.7629 25.931L37.8249 23.024V25.734C37.8249 25.8285 37.7874 25.919 37.7207 25.9858C37.6539 26.0525 37.5634 26.09 37.4689 26.09C37.3745 26.09 37.284 26.0525 37.2172 25.9858C37.1504 25.919 37.1129 25.8285 37.1129 25.734V21.849C37.1122 21.7723 37.1363 21.6974 37.1817 21.6355C37.2271 21.5736 37.2913 21.5281 37.3648 21.5058C37.4382 21.4835 37.5169 21.4856 37.589 21.5118C37.6612 21.538 37.7229 21.5868 37.7649 21.651L39.7029 24.558V21.848C39.7029 21.7536 39.7404 21.6631 39.8072 21.5963C39.874 21.5295 39.9645 21.492 40.0589 21.492C40.1534 21.492 40.2439 21.5295 40.3107 21.5963C40.3774 21.6631 40.4149 21.7536 40.4149 21.848V25.733C40.4151 25.7798 40.406 25.8262 40.3881 25.8694C40.3703 25.9127 40.3441 25.952 40.311 25.9851C40.2779 26.0181 40.2386 26.0444 40.1953 26.0622C40.1521 26.0801 40.1057 26.0892 40.0589 26.089L40.0599 26.09Z" fill="white"/>
</g>
</g>
</g>
<defs>
<clipPath id="clip0_34_2059">
<rect width="72" height="72" rx="36" fill="white"/>
</clipPath>
<clipPath id="clip1_34_2059">
<rect width="72" height="72" fill="white"/>
</clipPath>
<clipPath id="clip2_34_2059">
<rect width="72" height="72" fill="white"/>
</clipPath>
</defs>
</svg>
